<svg width="26" height="27" viewBox="0 0 26 27" fill="none" xmlns="http://www.w3.org/2000/svg">
<path id="Vector" d="M12.5346 26.1538C15.859 26.1538 19.0472 24.7761 21.3979 22.3237C23.7486 19.8713 25.0693 16.5451 25.0693 13.0769C25.0693 9.60871 23.7486 6.28254 21.3979 3.83014C19.0472 1.37774 15.859 0 12.5346 0C9.21024 0 6.02201 1.37774 3.67131 3.83014C1.32061 6.28254 0 9.60871 0 13.0769C0 16.5451 1.32061 19.8713 3.67131 22.3237C6.02201 24.7761 9.21024 26.1538 12.5346 26.1538ZM18.0675 10.6761L11.8002 17.2145C11.3399 17.6947 10.5957 17.6947 10.1403 17.2145L7.00666 13.9453C6.5464 13.4651 6.5464 12.6887 7.00666 12.2136C7.46692 11.7386 8.21116 11.7335 8.66652 12.2136L10.9678 14.6145L16.4027 8.9393C16.863 8.45914 17.6072 8.45914 18.0626 8.9393C18.518 9.41947 18.5228 10.1959 18.0626 10.671L18.0675 10.6761Z" fill="white"/>
</svg>
