<svg width="41" height="24" viewBox="0 0 41 24" fill="none" xmlns="http://www.w3.org/2000/svg">
<path d="M24.3679 9.99317C24.4877 10.582 24.5731 11.1708 24.5731 11.9345C24.5731 18.602 19.7678 23.3281 12.5344 23.3281C5.60874 23.3281 -0.000244141 18.1087 -0.000244141 11.664C-0.000244141 5.21936 5.60874 0 12.5344 0C15.9203 0 18.7418 1.14569 20.9307 3.05525L17.5277 6.09458C16.6042 5.26711 14.9797 4.29644 12.5344 4.29644C8.25929 4.29644 4.77075 7.59038 4.77075 11.664C4.77075 15.7377 8.25929 19.0316 12.5344 19.0316C17.4935 19.0316 19.3575 15.7059 19.6481 14.0032H12.5344V9.99311H24.3679V9.99317ZM36.4721 10.3842V6.99843H32.8161V10.3842H29.1776V13.7863H32.8161V17.1721H36.4721V13.7863H40.1106V10.3842H36.4721Z" fill="white"/>
</svg>
