<svg width="136" height="123" viewBox="0 0 136 123" fill="none" xmlns="http://www.w3.org/2000/svg">
<path d="M134 61.5C134 94.1766 104.645 121 68 121C31.3554 121 2 94.1766 2 61.5C2 28.8234 31.3554 2 68 2C104.645 2 134 28.8234 134 61.5Z" fill="white" stroke="#002D9F" stroke-width="4"/>
<g clip-path="url(#clip0_356_275)">
<path d="M54.1215 31.2672C52.9484 28.7969 49.8559 27.482 46.9004 28.1859L33.4941 31.3734C30.8434 32.0109 29 34.1094 29 36.5C29 69.3578 59.5602 96 97.25 96C99.9922 96 102.399 94.393 103.13 92.082L106.787 80.3945C107.594 77.818 106.086 75.1219 103.252 74.0992L88.6273 68.7867C86.1441 67.8836 83.2648 68.5078 81.5738 70.3274L75.4191 76.875C64.6941 72.4523 56.0105 64.882 50.9375 55.532L58.448 50.1797C60.5352 48.6922 61.2512 46.1953 60.2152 44.0305L54.1215 31.2805V31.2672Z" fill="black"/>
</g>
<defs>
<clipPath id="clip0_356_275">
<rect width="78" height="68" fill="white" transform="translate(29 28)"/>
</clipPath>
</defs>
</svg>
