<svg width="977" height="83" viewBox="0 0 977 83" fill="none" xmlns="http://www.w3.org/2000/svg">
<rect x="349.5" y="1.5" width="264" height="80" fill="#DC0606" stroke="#002D9F" stroke-width="3"/>
<rect x="1.5" y="1.5" width="264" height="80" fill="#DC0606" stroke="#002D9F" stroke-width="3"/>
<rect x="711.5" y="1.5" width="264" height="80" fill="#DC0606" stroke="#002D9F" stroke-width="3"/>
<g clip-path="url(#clip0_356_274)">
<path d="M854.938 41.5C854.938 43.9715 854.795 46.3539 854.544 48.625H832.456C832.194 46.3539 832.062 43.9715 832.062 41.5C832.062 39.0285 832.205 36.6461 832.456 34.375H854.544C854.806 36.6461 854.938 39.0285 854.938 41.5ZM858.369 34.375H873.035C873.666 36.6572 874 39.0396 874 41.5C874 43.9604 873.666 46.3428 873.035 48.625H858.369C858.619 46.3316 858.75 43.9492 858.75 41.5C858.75 39.0508 858.619 36.6684 858.369 34.375ZM871.784 30.8125H857.88C856.689 23.6986 854.33 17.7426 851.292 13.9352C860.621 16.2396 868.21 22.5631 871.772 30.8125H871.784ZM854.02 30.8125H832.98C833.707 26.7602 834.827 23.1754 836.197 20.2697C837.448 17.6424 838.842 15.7387 840.188 14.5363C841.522 13.3562 842.63 13 843.5 13C844.37 13 845.478 13.3562 846.812 14.5363C848.158 15.7387 849.552 17.6424 850.803 20.2697C852.185 23.1643 853.293 26.749 854.02 30.8125ZM829.12 30.8125H815.216C818.79 22.5631 826.368 16.2396 835.708 13.9352C832.67 17.7426 830.311 23.6986 829.12 30.8125ZM813.965 34.375H828.631C828.381 36.6684 828.25 39.0508 828.25 41.5C828.25 43.9492 828.381 46.3316 828.631 48.625H813.965C813.334 46.3428 813 43.9604 813 41.5C813 39.0396 813.334 36.6572 813.965 34.375ZM836.197 62.7191C834.815 59.8246 833.707 56.2398 832.98 52.1875H854.02C853.293 56.2398 852.173 59.8246 850.803 62.7191C849.552 65.3465 848.158 67.2502 846.812 68.4525C845.478 69.6437 844.37 70 843.5 70C842.63 70 841.522 69.6438 840.188 68.4637C838.842 67.2613 837.448 65.3576 836.197 62.7303V62.7191ZM829.12 52.1875C830.311 59.3014 832.67 65.2574 835.708 69.0648C826.368 66.7604 818.79 60.4369 815.216 52.1875H829.12ZM871.784 52.1875C868.21 60.4369 860.632 66.7604 851.304 69.0648C854.342 65.2574 856.689 59.3014 857.892 52.1875H871.784Z" fill="black"/>
</g>
<path d="M486.415 8.05909C486.803 7.9803 487.203 7.9803 487.59 8.05909L512.588 13.3118C513.988 13.6007 515 14.9007 515 16.3977C515 17.8948 513.988 19.1948 512.588 19.4837L503.001 21.506V29.0042C503.001 38.2883 495.839 45.8128 487.003 45.8128C478.166 45.8128 471.004 38.2883 471.004 29.0042V21.506L465.005 20.2453V28.7941L466.967 39.0894C467.08 39.7066 466.93 40.35 466.555 40.8359C466.18 41.3218 465.605 41.6107 465.005 41.6107H461.005C460.405 41.6107 459.843 41.3349 459.456 40.8359C459.068 40.3369 458.918 39.7066 459.043 39.0894L461.005 28.7941V19.3655C459.818 18.9322 459.006 17.7503 459.006 16.3977C459.006 14.9007 460.018 13.6007 461.418 13.3118L486.415 8.05909ZM472.992 51.0261C474.304 50.5796 475.716 51.0786 476.666 52.1423L485.54 62.0568C486.328 62.9366 487.665 62.9366 488.453 62.0568L497.327 52.1423C498.277 51.0786 499.689 50.5796 501.001 51.0261C509.126 53.7707 515 61.7547 515 71.1965C515 73.4289 513.275 75.2279 511.163 75.2279H462.843C460.73 75.2279 459.006 73.4157 459.006 71.1965C459.006 61.7547 464.88 53.7707 472.992 51.0261Z" fill="black"/>
<path d="M123.719 14.7228H142.281C142.848 14.7228 143.312 15.227 143.312 15.8433V21.4456H122.688V15.8433C122.688 15.227 123.152 14.7228 123.719 14.7228ZM116.5 15.8433V21.4456H108.25C103.7 21.4456 100 25.4652 100 30.4093V43.8549H124.75H141.25H166V30.4093C166 25.4652 162.3 21.4456 157.75 21.4456H149.5V15.8433C149.5 11.5155 146.264 8 142.281 8H123.719C119.736 8 116.5 11.5155 116.5 15.8433ZM166 48.3367H141.25V52.8186C141.25 55.2976 139.407 57.3005 137.125 57.3005H128.875C126.593 57.3005 124.75 55.2976 124.75 52.8186V48.3367H100V66.2642C100 71.2082 103.7 75.2279 108.25 75.2279H157.75C162.3 75.2279 166 71.2082 166 66.2642V48.3367Z" fill="black"/>
<defs>
<clipPath id="clip0_356_274">
<rect width="61" height="57" fill="white" transform="translate(813 13)"/>
</clipPath>
</defs>
</svg>
