<svg width="26" height="24" viewBox="0 0 26 24" fill="none" xmlns="http://www.w3.org/2000/svg">
<path d="M13.7097 0.00102729C19.982 0.00102729 25.0693 4.73478 25.0693 10.5711C25.0693 11.1771 24.5453 11.6646 23.8941 11.6646C23.2429 11.6646 22.719 11.1771 22.719 10.5711C22.719 5.94214 18.6844 2.18794 13.7097 2.18794C13.0585 2.18794 12.5346 1.70044 12.5346 1.09448C12.5346 0.488526 13.0585 0.00102729 13.7097 0.00102729ZM14.1015 8.74867C14.517 8.74867 14.9155 8.90228 15.2094 9.1757C15.5032 9.44911 15.6683 9.81995 15.6683 10.2066C15.6683 10.5933 15.5032 10.9641 15.2094 11.2375C14.9155 11.511 14.517 11.6646 14.1015 11.6646C13.6859 11.6646 13.2874 11.511 12.9935 11.2375C12.6997 10.9641 12.5346 10.5933 12.5346 10.2066C12.5346 9.81995 12.6997 9.44911 12.9935 9.1757C13.2874 8.90228 13.6859 8.74867 14.1015 8.74867ZM12.5346 5.46831C12.5346 4.86235 13.0585 4.37485 13.7097 4.37485C17.3869 4.37485 20.3688 7.1495 20.3688 10.5711C20.3688 11.1771 19.8449 11.6646 19.1936 11.6646C18.5424 11.6646 18.0185 11.1771 18.0185 10.5711C18.0185 8.35685 16.0894 6.56176 13.7097 6.56176C13.0585 6.56176 12.5346 6.07426 12.5346 5.46831ZM5.7532 0.0648122C6.70309 -0.176659 7.69704 0.274391 8.07406 1.12182L10.0326 5.49564C10.3655 6.23828 10.1354 7.09938 9.46462 7.6051L7.05073 9.44575C8.68121 12.6532 11.4721 15.2502 14.9191 16.7674L16.8924 14.5212C17.4408 13.897 18.3613 13.6829 19.1594 13.9927L23.8599 15.8151C24.7706 16.166 25.2553 17.0908 24.9958 17.9747L23.8207 21.984C23.5906 22.7768 22.8169 23.3281 21.9356 23.3281C9.82205 23.3281 0 14.1886 0 2.91691C0 2.09682 0.592457 1.37696 1.44442 1.15827L5.7532 0.0648122Z" fill="white"/>
</svg>
