<svg width="41" height="24" viewBox="0 0 41 24" fill="none" xmlns="http://www.w3.org/2000/svg">
<path d="M24.3682 9.99317C24.4879 10.582 24.5734 11.1707 24.5734 11.9345C24.5734 18.602 19.7681 23.3281 12.5346 23.3281C5.60898 23.3281 0 18.1087 0 11.664C0 5.21936 5.60898 0 12.5346 0C15.9205 0 18.7421 1.14569 20.9309 3.05525L17.5279 6.09458C16.6045 5.26711 14.98 4.29644 12.5346 4.29644C8.25953 4.29644 4.77099 7.59038 4.77099 11.664C4.77099 15.7377 8.25953 19.0316 12.5346 19.0316C17.4937 19.0316 19.3577 15.7059 19.6484 14.0032H12.5346V9.99311H24.3682V9.99317ZM36.4723 10.3842V6.99843H32.8163V10.3842H29.1778V13.7863H32.8163V17.1721H36.4723V13.7863H40.1108V10.3842H36.4723Z" fill="white"/>
</svg>
