<svg width="26" height="18" viewBox="0 0 26 18" fill="none" xmlns="http://www.w3.org/2000/svg">
<path d="M12.5346 17.2027C15.859 17.2027 19.0472 16.326 21.3979 14.7654C23.7486 13.2048 25.0693 11.0882 25.0693 8.88122C25.0693 6.67421 23.7486 4.5576 21.3979 2.99701C19.0472 1.43642 15.859 0.559692 12.5346 0.559692C9.21024 0.559692 6.02201 1.43642 3.67131 2.99701C1.32061 4.5576 0 6.67421 0 8.88122C0 11.0882 1.32061 13.2048 3.67131 14.7654C6.02201 16.326 9.21024 17.2027 12.5346 17.2027ZM18.0675 7.35344L11.8002 11.5142C11.3399 11.8198 10.5957 11.8198 10.1403 11.5142L7.00666 9.43382C6.5464 9.12826 6.5464 8.63417 7.00666 8.33186C7.46692 8.02956 8.21116 8.02631 8.66652 8.33186L10.9678 9.85964L16.4027 6.24823C16.863 5.94268 17.6072 5.94268 18.0626 6.24823C18.518 6.55379 18.5228 7.04788 18.0626 7.35018L18.0675 7.35344Z" fill="white"/>
</svg>
