<svg width="26" height="17" viewBox="0 0 26 17" fill="none" xmlns="http://www.w3.org/2000/svg">
<path d="M12.5346 17.0017C15.859 17.0017 19.0472 16.125 21.3979 14.5644C23.7486 13.0038 25.0693 10.8872 25.0693 8.68017C25.0693 6.47316 23.7486 4.35655 21.3979 2.79596C19.0472 1.23537 15.859 0.358643 12.5346 0.358643C9.21024 0.358643 6.02201 1.23537 3.67131 2.79596C1.32061 4.35655 0 6.47316 0 8.68017C0 10.8872 1.32061 13.0038 3.67131 14.5644C6.02201 16.125 9.21024 17.0017 12.5346 17.0017ZM18.0675 7.15239L11.8002 11.3131C11.3399 11.6187 10.5957 11.6187 10.1403 11.3131L7.00666 9.23277C6.5464 8.92721 6.5464 8.43312 7.00666 8.13082C7.46692 7.82851 8.21116 7.82526 8.66652 8.13082L10.9678 9.65859L16.4027 6.04718C16.863 5.74163 17.6072 5.74163 18.0626 6.04718C18.518 6.35274 18.5228 6.84683 18.0626 7.14914L18.0675 7.15239Z" fill="white"/>
</svg>
