<svg width="26" height="24" viewBox="0 0 26 24" fill="none" xmlns="http://www.w3.org/2000/svg">
<path d="M13.7097 0.00101654C19.982 0.00101654 25.0693 4.68522 25.0693 10.4605C25.0693 11.0601 24.5453 11.5425 23.8941 11.5425C23.2429 11.5425 22.719 11.0601 22.719 10.4605C22.719 5.87994 18.6844 2.16504 13.7097 2.16504C13.0585 2.16504 12.5346 1.68264 12.5346 1.08303C12.5346 0.483413 13.0585 0.00101654 13.7097 0.00101654ZM14.1015 8.6571C14.517 8.6571 14.9155 8.8091 15.2094 9.07965C15.5032 9.35021 15.6683 9.71716 15.6683 10.0998C15.6683 10.4824 15.5032 10.8494 15.2094 11.1199C14.9155 11.3905 14.517 11.5425 14.1015 11.5425C13.6859 11.5425 13.2874 11.3905 12.9935 11.1199C12.6997 10.8494 12.5346 10.4824 12.5346 10.0998C12.5346 9.71716 12.6997 9.35021 12.9935 9.07965C13.2874 8.8091 13.6859 8.6571 14.1015 8.6571ZM12.5346 5.41107C12.5346 4.81145 13.0585 4.32906 13.7097 4.32906C17.3869 4.32906 20.3688 7.07466 20.3688 10.4605C20.3688 11.0601 19.8449 11.5425 19.1936 11.5425C18.5424 11.5425 18.0185 11.0601 18.0185 10.4605C18.0185 8.26938 16.0894 6.49308 13.7097 6.49308C13.0585 6.49308 12.5346 6.01068 12.5346 5.41107ZM5.7532 0.0641338C6.70309 -0.17481 7.69704 0.271519 8.07406 1.11008L10.0326 5.43812C10.3655 6.17298 10.1354 7.02507 9.46462 7.5255L7.05073 9.34688C8.68121 12.5208 11.4721 15.0906 14.9191 16.5918L16.8924 14.3692C17.4408 13.7516 18.3613 13.5397 19.1594 13.8462L23.8599 15.6496C24.7706 15.9967 25.2553 16.9119 24.9958 17.7866L23.8207 21.7539C23.5906 22.5384 22.8169 23.0839 21.9356 23.0839C9.82206 23.0839 0 14.0401 0 2.88638C0 2.07487 0.592457 1.36255 1.44442 1.14614L5.7532 0.0641338Z" fill="white"/>
</svg>
