<svg width="41" height="24" viewBox="0 0 41 24" fill="none" xmlns="http://www.w3.org/2000/svg">
<path d="M24.3682 9.88857C24.4879 10.4712 24.5734 11.0538 24.5734 11.8096C24.5734 18.4073 19.7681 23.0839 12.5346 23.0839C5.60898 23.0839 0 17.9192 0 11.542C0 5.16472 5.60898 0 12.5346 0C15.9205 0 18.7421 1.1337 20.9309 3.02327L17.5279 6.03079C16.6045 5.21197 14.98 4.25147 12.5346 4.25147C8.25953 4.25147 4.77099 7.51093 4.77099 11.542C4.77099 15.573 8.25953 18.8324 12.5346 18.8324C17.4937 18.8324 19.3577 15.5415 19.6484 13.8566H12.5346V9.88851H24.3682V9.88857ZM36.4723 10.2755V6.92517H32.8163V10.2755H29.1778V13.642H32.8163V16.9923H36.4723V13.642H40.1108V10.2755H36.4723Z" fill="white"/>
</svg>
