<svg width="41" height="24" viewBox="0 0 41 24" fill="none" xmlns="http://www.w3.org/2000/svg">
<path d="M24.368 9.99317C24.4878 10.582 24.5732 11.1708 24.5732 11.9345C24.5732 18.602 19.768 23.3281 12.5345 23.3281C5.60886 23.3281 -0.00012207 18.1087 -0.00012207 11.664C-0.00012207 5.21936 5.60886 0 12.5345 0C15.9204 0 18.742 1.14569 20.9308 3.05525L17.5278 6.09458C16.6043 5.26711 14.9799 4.29644 12.5345 4.29644C8.25941 4.29644 4.77087 7.59038 4.77087 11.664C4.77087 15.7377 8.25941 19.0316 12.5345 19.0316C17.4936 19.0316 19.3576 15.7059 19.6482 14.0032H12.5345V9.99311H24.368V9.99317ZM36.4722 10.3842V6.99843H32.8162V10.3842H29.1777V13.7863H32.8162V17.1721H36.4722V13.7863H40.1107V10.3842H36.4722Z" fill="white"/>
</svg>
