<svg width="36" height="24" viewBox="0 0 36 24" fill="none" xmlns="http://www.w3.org/2000/svg">
<path d="M34.3637 3.65006C33.96 2.21331 32.7708 1.08178 31.2607 0.697777C28.5237 0 17.5486 0 17.5486 0C17.5486 0 6.57353 0 3.83645 0.697777C2.32643 1.08184 1.13715 2.21331 0.733507 3.65006C0.00012207 6.25424 0.00012207 11.6876 0.00012207 11.6876C0.00012207 11.6876 0.00012207 17.121 0.733507 19.7252C1.13715 21.1619 2.32643 22.2463 3.83645 22.6303C6.57353 23.3281 17.5486 23.3281 17.5486 23.3281C17.5486 23.3281 28.5237 23.3281 31.2607 22.6303C32.7708 22.2463 33.96 21.1619 34.3637 19.7252C35.0971 17.121 35.0971 11.6876 35.0971 11.6876C35.0971 11.6876 35.0971 6.25424 34.3637 3.65006ZM13.9591 16.6207V6.75451L23.1321 11.6877L13.9591 16.6207Z" fill="white"/>
</svg>
