<svg width="36" height="24" viewBox="0 0 36 24" fill="none" xmlns="http://www.w3.org/2000/svg">
<path d="M34.3636 3.61185C33.9599 2.19015 32.7706 1.07046 31.2606 0.690473C28.5236 0 17.5485 0 17.5485 0C17.5485 0 6.57341 0 3.83632 0.690473C2.32631 1.07052 1.13703 2.19015 0.733385 3.61185C0 6.18877 0 11.5653 0 11.5653C0 11.5653 0 16.9418 0.733385 19.5187C1.13703 20.9404 2.32631 22.0135 3.83632 22.3934C6.57341 23.0839 17.5485 23.0839 17.5485 23.0839C17.5485 23.0839 28.5235 23.0839 31.2606 22.3934C32.7706 22.0135 33.9599 20.9404 34.3636 19.5187C35.097 16.9418 35.097 11.5653 35.097 11.5653C35.097 11.5653 35.097 6.18877 34.3636 3.61185ZM13.959 16.4467V6.68381L23.132 11.5654L13.959 16.4467Z" fill="white"/>
</svg>
