<svg width="36" height="24" viewBox="0 0 36 24" fill="none" xmlns="http://www.w3.org/2000/svg">
<path d="M34.3636 3.65006C33.9599 2.21331 32.7706 1.08178 31.2606 0.697777C28.5236 0 17.5485 0 17.5485 0C17.5485 0 6.57341 0 3.83632 0.697777C2.32631 1.08184 1.13703 2.21331 0.733385 3.65006C0 6.25424 0 11.6876 0 11.6876C0 11.6876 0 17.121 0.733385 19.7252C1.13703 21.1619 2.32631 22.2463 3.83632 22.6303C6.57341 23.3281 17.5485 23.3281 17.5485 23.3281C17.5485 23.3281 28.5235 23.3281 31.2606 22.6303C32.7706 22.2463 33.9599 21.1619 34.3636 19.7252C35.097 17.121 35.097 11.6876 35.097 11.6876C35.097 11.6876 35.097 6.25424 34.3636 3.65006ZM13.959 16.6207V6.75451L23.132 11.6877L13.959 16.6207Z" fill="white"/>
</svg>
